<?xml version="1.0" standalone="no"?>
<!DOCTYPE svg PUBLIC "-//W3C//DTD SVG 20010904//EN"
 "http://www.w3.org/TR/2001/REC-SVG-20010904/DTD/svg10.dtd">
<svg version="1.0" xmlns="http://www.w3.org/2000/svg"
 width="360.000000pt" height="189.000000pt" viewBox="0 0 360.000000 189.000000"
 preserveAspectRatio="xMidYMid meet">

<g transform="translate(0.000000,189.000000) scale(0.100000,-0.100000)"
fill="#000000" stroke="none">
<path d="M1610 1623 c-115 -40 -203 -137 -229 -252 l-9 -41 37 0 c35 0 37 2
55 53 36 104 154 187 265 187 117 0 226 -82 266 -197 l13 -38 62 -2 c81 -4
149 -34 203 -92 l44 -47 69 0 c83 0 144 -25 197 -78 62 -62 82 -110 82 -201 0
-71 -3 -86 -31 -135 -17 -30 -50 -70 -73 -87 -76 -59 -108 -63 -477 -63 l-332
0 -4 -35 -4 -36 370 3 371 3 57 28 c74 36 150 119 178 195 83 219 -69 462
-300 480 -59 4 -69 9 -108 44 -53 49 -130 85 -197 93 -48 6 -52 10 -75 51 -33
63 -119 138 -185 163 -68 25 -179 27 -245 4z"/>
<path d="M867 1263 c-4 -3 -7 -232 -7 -509 0 -448 2 -503 16 -508 28 -11 754
-7 774 4 18 10 19 30 19 502 0 337 -3 496 -11 505 -8 10 -92 13 -398 13 -212
0 -390 -3 -393 -7z m703 -128 l0 -65 -314 0 -314 0 -4 65 -3 65 318 0 317 0 0
-65z m0 -250 l0 -65 -314 0 -314 0 -4 65 -3 65 318 0 317 0 0 -65z m0 -250 l0
-65 -315 0 -315 0 0 65 0 65 315 0 315 0 0 -65z m0 -250 l0 -65 -317 0 -318 0
3 65 4 65 314 0 314 0 0 -65z"/>
<path d="M1464 1156 c-10 -26 4 -48 28 -44 17 2 23 10 23 28 0 18 -6 26 -23
28 -13 2 -25 -3 -28 -12z"/>
<path d="M1473 923 c-19 -7 -16 -50 4 -57 24 -10 51 20 37 41 -12 19 -23 24
-41 16z"/>
<path d="M1464 656 c-10 -26 4 -48 28 -44 17 2 23 10 23 28 0 18 -6 26 -23 28
-13 2 -25 -3 -28 -12z"/>
<path d="M1467 404 c-10 -11 -9 -42 3 -49 20 -12 51 6 48 28 -3 22 -36 35 -51
21z"/>
</g>
</svg>
