<?xml version="1.0" standalone="no"?>
<!DOCTYPE svg PUBLIC "-//W3C//DTD SVG 20010904//EN"
 "http://www.w3.org/TR/2001/REC-SVG-20010904/DTD/svg10.dtd">
<svg version="1.0" xmlns="http://www.w3.org/2000/svg"
 width="840.000000pt" height="484.000000pt" viewBox="0 0 840.000000 484.000000"
 preserveAspectRatio="xMidYMid meet">

<g transform="translate(0.000000,484.000000) scale(0.100000,-0.100000)"
fill="#000000" stroke="none">
<path d="M1015 4325 l-35 -36 0 -1593 0 -1593 21 -27 c46 -59 -1 -56 964 -56
487 0 885 -2 885 -5 0 -16 -71 -439 -74 -443 -3 -2 -46 -14 -96 -27 -99 -25
-116 -35 -107 -59 6 -15 89 -16 829 -14 l823 3 3 21 c3 20 -6 24 -93 45 -52
13 -99 26 -105 29 -5 3 -23 92 -40 198 -17 106 -33 206 -37 222 l-6 30 319 -2
319 -3 5 -252 c4 -221 7 -255 22 -273 18 -20 25 -20 986 -20 l969 0 19 21 c18
21 19 56 19 1285 l0 1263 -23 23 c-23 23 -23 23 -387 26 l-365 3 0 567 c0 312
-5 585 -10 607 -5 24 -21 51 -40 68 l-30 27 -2350 0 -2349 0 -36 -35z m4535
-725 l0 -510 -456 0 c-278 0 -462 -4 -474 -10 -38 -21 -40 -52 -40 -746 l0
-674 -1670 0 -1670 0 0 1225 0 1225 2155 0 2155 0 0 -510z m840 -1785 l0
-1065 -795 0 -795 0 0 1065 0 1065 795 0 795 0 0 -1065z m-2929 -398 c65 -43
62 -137 -5 -178 -17 -10 -41 -19 -54 -19 -55 0 -112 56 -112 110 0 33 28 78
58 94 39 22 74 19 113 -7z m2179 -769 c24 -26 25 -46 4 -76 -18 -26 -65 -30
-88 -6 -24 23 -20 70 6 88 31 22 54 20 78 -6z"/>
<path d="M6847 1683 c-46 -12 -47 -28 -47 -611 0 -541 0 -550 21 -576 l20 -26
273 0 c252 0 274 1 289 18 15 17 17 72 17 590 l0 571 -26 20 c-26 20 -38 21
-278 20 -138 -1 -259 -3 -269 -6z m513 -593 l0 -420 -250 0 -250 0 0 413 c0
228 3 417 7 420 3 4 116 7 250 7 l243 0 0 -420z m-210 -490 c11 -11 20 -27 20
-35 0 -20 -36 -55 -57 -55 -25 0 -53 30 -53 56 0 23 33 54 57 54 7 0 22 -9 33
-20z"/>
</g>
</svg>
