<?xml version="1.0" standalone="no"?>
<!DOCTYPE svg PUBLIC "-//W3C//DTD SVG 20010904//EN"
 "http://www.w3.org/TR/2001/REC-SVG-20010904/DTD/svg10.dtd">
<svg version="1.0" xmlns="http://www.w3.org/2000/svg"
 width="920.000000pt" height="512.000000pt" viewBox="0 0 920.000000 512.000000"
 preserveAspectRatio="xMidYMid meet">

<g transform="translate(0.000000,512.000000) scale(0.100000,-0.100000)"
fill="#000000" stroke="none">
<path d="M4565 4889 c-16 -10 -472 -274 -1012 -586 l-983 -567 0 -1176 0
-1175 753 -435 c413 -239 870 -503 1014 -586 l263 -152 1015 586 1015 586 0
1176 0 1176 -1012 584 c-556 322 -1014 586 -1017 587 -3 1 -19 -7 -36 -18z
m923 -685 c482 -278 880 -509 884 -512 12 -12 -730 -425 -749 -418 -9 4 -243
137 -520 297 l-503 291 -507 -293 c-280 -160 -512 -294 -516 -296 -9 -6 -757
410 -750 417 13 13 1760 1019 1771 1019 7 1 408 -227 890 -505z m-453 -784
c233 -135 425 -247 425 -250 0 -4 -779 -449 -831 -474 -13 -6 -119 48 -454
235 -405 226 -434 244 -413 255 13 7 205 119 428 248 223 129 408 234 412 233
4 -1 199 -112 433 -247z m-1929 -82 l363 -203 3 -614 3 -613 522 -302 523
-301 0 -428 0 -427 -48 27 c-26 16 -429 248 -895 517 l-847 489 0 1029 c0 565
3 1028 6 1028 3 0 170 -91 370 -202z m3364 -826 l0 -1029 -872 -503 c-480
-277 -883 -510 -896 -518 l-23 -15 6 429 c4 236 10 432 13 436 4 4 237 139
517 301 l510 295 5 611 5 612 360 204 c198 112 363 204 368 205 4 0 7 -463 7
-1028z m-2365 268 c220 -122 404 -225 408 -229 7 -7 11 -1041 3 -1048 -1 -2
-199 110 -439 249 l-437 252 0 519 0 519 33 -20 c17 -11 212 -120 432 -242z
m1455 -263 l0 -513 -257 -149 c-142 -82 -338 -195 -436 -251 l-177 -103 2 521
3 520 430 244 c237 134 431 244 433 244 1 0 2 -231 2 -513z"/>
</g>
</svg>
