<svg id="svg" version="1.1" xmlns="http://www.w3.org/2000/svg" xmlns:xlink="http://www.w3.org/1999/xlink" width="400" height="400" viewBox="0, 0, 400,400"><g id="svgg"><path id="path1" d="M247.600 114.797 C 245.510 115.196,243.136 115.541,242.324 115.562 C 241.512 115.583,240.750 115.758,240.630 115.951 C 240.511 116.144,239.556 116.511,238.507 116.767 C 236.822 117.177,234.175 118.261,232.400 119.265 C 232.070 119.452,231.170 119.919,230.400 120.302 C 229.630 120.686,228.820 121.146,228.600 121.324 C 228.380 121.502,227.660 121.994,227.000 122.418 C 226.340 122.842,225.456 123.416,225.036 123.694 C 222.353 125.470,213.600 135.066,213.600 136.231 C 213.600 136.522,213.375 136.904,213.100 137.080 C 212.825 137.256,212.217 138.210,211.748 139.200 C 209.293 144.390,208.823 145.516,208.576 146.800 C 208.429 147.570,208.068 148.650,207.775 149.200 C 206.662 151.290,205.983 160.966,206.586 166.152 C 207.464 173.705,207.321 173.837,199.800 172.424 C 198.700 172.217,196.630 172.035,195.200 172.019 C 193.770 172.003,191.160 171.635,189.400 171.200 C 187.640 170.765,185.603 170.407,184.874 170.405 C 184.145 170.402,182.705 170.055,181.674 169.634 C 180.643 169.212,178.912 168.761,177.826 168.631 C 176.740 168.501,175.480 168.153,175.026 167.858 C 174.572 167.562,173.486 167.188,172.614 167.026 C 171.741 166.864,170.535 166.477,169.934 166.166 C 169.332 165.855,168.509 165.600,168.104 165.600 C 167.700 165.600,166.663 165.240,165.800 164.800 C 164.937 164.360,164.044 163.998,163.815 163.996 C 163.587 163.994,162.500 163.550,161.400 163.009 C 160.300 162.468,159.240 162.019,159.044 162.013 C 158.670 161.999,155.430 160.560,154.400 159.950 C 153.744 159.561,152.541 158.996,151.600 158.635 C 151.270 158.508,150.100 157.868,149.000 157.213 C 147.900 156.558,146.415 155.744,145.700 155.406 C 144.985 155.067,144.400 154.631,144.400 154.438 C 144.400 154.245,143.966 153.978,143.435 153.845 C 142.905 153.711,141.086 152.657,139.393 151.501 C 137.700 150.346,135.906 149.130,135.407 148.800 C 131.731 146.372,129.897 144.997,129.720 144.537 C 129.607 144.241,129.333 144.000,129.112 144.000 C 128.890 144.000,127.610 143.055,126.268 141.900 C 124.926 140.745,123.552 139.578,123.214 139.308 C 121.781 138.159,111.600 128.074,111.600 127.803 C 111.600 127.258,108.408 124.400,107.800 124.400 C 107.470 124.400,107.199 124.715,107.199 125.100 C 107.198 125.485,106.859 126.355,106.445 127.033 C 106.031 127.712,105.564 128.882,105.407 129.633 C 105.250 130.385,104.869 131.398,104.561 131.885 C 104.253 132.372,103.820 134.051,103.598 135.617 C 103.375 137.183,102.970 138.855,102.697 139.332 C 102.027 140.502,102.032 152.249,102.703 153.453 C 102.964 153.923,103.383 155.625,103.633 157.236 C 103.883 158.848,104.428 160.801,104.844 161.577 C 105.260 162.353,105.600 163.266,105.600 163.605 C 105.600 163.944,106.167 165.297,106.860 166.611 C 107.553 167.925,108.394 169.540,108.729 170.200 C 109.064 170.860,109.461 171.490,109.613 171.600 C 109.764 171.710,110.166 172.340,110.506 173.000 C 111.454 174.841,114.715 178.337,121.061 184.315 C 121.829 185.038,122.385 185.848,122.297 186.115 C 122.053 186.852,117.438 186.939,115.264 186.248 C 114.239 185.922,112.590 185.535,111.600 185.389 C 110.610 185.243,109.437 184.894,108.994 184.614 C 108.551 184.334,107.561 183.971,106.794 183.808 C 106.027 183.645,105.120 183.265,104.779 182.965 C 102.346 180.826,100.923 186.649,102.864 190.800 C 103.223 191.570,103.642 193.136,103.794 194.280 C 103.945 195.424,104.324 196.571,104.635 196.829 C 104.946 197.087,105.202 197.591,105.204 197.949 C 105.206 198.307,105.650 199.500,106.191 200.600 C 106.732 201.700,107.181 202.810,107.187 203.067 C 107.194 203.323,107.361 203.593,107.558 203.667 C 107.755 203.740,108.250 204.363,108.658 205.050 C 112.968 212.310,121.103 219.933,127.600 222.800 C 128.150 223.043,129.332 223.592,130.226 224.021 C 131.121 224.449,132.066 224.800,132.328 224.800 C 132.589 224.800,133.475 225.160,134.296 225.600 C 135.116 226.040,136.208 226.400,136.720 226.400 C 138.054 226.400,139.208 227.114,138.952 227.781 C 138.388 229.251,134.099 230.133,126.830 230.273 C 118.260 230.437,118.923 229.788,121.654 235.334 C 123.926 239.948,124.312 240.629,124.967 241.173 C 125.315 241.462,125.600 241.864,125.600 242.068 C 125.600 242.566,134.261 251.200,134.761 251.200 C 134.977 251.200,135.390 251.518,135.677 251.906 C 135.965 252.295,136.650 252.843,137.200 253.125 C 137.750 253.408,138.920 254.076,139.800 254.610 C 140.680 255.144,141.850 255.765,142.400 255.991 C 142.950 256.216,143.715 256.580,144.100 256.800 C 145.578 257.644,146.287 257.923,149.000 258.724 C 151.312 259.407,156.660 260.610,161.117 261.451 C 163.616 261.922,162.857 262.932,157.200 266.663 C 151.972 270.111,151.952 270.124,149.414 271.400 C 148.101 272.060,146.784 272.825,146.485 273.100 C 146.187 273.375,145.731 273.606,145.471 273.613 C 145.212 273.619,144.100 274.068,143.000 274.609 C 141.900 275.150,140.707 275.594,140.349 275.596 C 139.991 275.598,139.490 275.851,139.235 276.158 C 138.980 276.465,138.123 276.838,137.331 276.986 C 136.539 277.135,135.244 277.604,134.452 278.028 C 133.660 278.453,132.559 278.804,132.006 278.809 C 131.453 278.814,130.215 279.174,129.256 279.609 C 128.297 280.044,127.049 280.400,126.482 280.400 C 125.915 280.400,124.180 280.743,122.626 281.162 C 121.071 281.581,118.180 282.028,116.200 282.156 C 114.220 282.283,111.971 282.570,111.203 282.794 C 110.434 283.017,107.194 283.203,104.003 283.206 C 99.112 283.211,96.407 283.559,97.212 284.078 C 97.887 284.515,100.045 285.703,101.400 286.385 C 102.280 286.828,103.270 287.372,103.600 287.595 C 103.930 287.818,104.650 288.180,105.200 288.399 C 105.750 288.619,106.470 288.948,106.800 289.131 C 108.836 290.260,110.757 291.121,111.800 291.373 C 112.460 291.532,113.270 291.887,113.600 292.162 C 113.930 292.437,115.010 292.892,116.000 293.172 C 116.990 293.453,117.980 293.823,118.200 293.995 C 118.420 294.167,119.230 294.436,120.000 294.593 C 120.770 294.750,121.762 295.107,122.204 295.386 C 122.646 295.664,123.960 296.097,125.124 296.346 C 126.288 296.596,127.726 297.046,128.320 297.346 C 128.914 297.646,130.376 298.016,131.569 298.169 C 132.762 298.321,134.093 298.636,134.526 298.868 C 134.960 299.099,136.593 299.450,138.157 299.646 C 139.721 299.842,141.810 300.261,142.800 300.577 C 143.790 300.893,146.760 301.268,149.400 301.410 C 152.040 301.553,156.180 301.923,158.600 302.232 C 164.106 302.935,166.233 302.935,172.000 302.235 C 174.530 301.928,178.929 301.550,181.776 301.394 C 184.623 301.238,187.682 300.853,188.573 300.539 C 189.463 300.225,191.274 299.872,192.596 299.756 C 193.918 299.639,195.720 299.293,196.600 298.987 C 197.480 298.681,199.343 298.251,200.740 298.031 C 202.137 297.811,203.489 297.458,203.745 297.246 C 204.001 297.034,205.288 296.591,206.605 296.263 C 209.332 295.583,212.530 294.512,214.000 293.786 C 214.550 293.515,215.630 293.162,216.400 293.002 C 217.170 292.842,218.070 292.482,218.400 292.203 C 218.730 291.923,219.450 291.561,220.000 291.397 C 220.550 291.233,222.431 290.402,224.181 289.550 C 225.930 288.697,227.536 288.000,227.749 288.000 C 227.963 288.000,228.429 287.736,228.785 287.414 C 229.422 286.837,233.257 284.646,236.000 283.291 C 236.770 282.911,237.504 282.460,237.630 282.289 C 237.757 282.118,238.837 281.363,240.030 280.611 C 241.224 279.859,242.485 278.964,242.834 278.622 C 243.182 278.280,243.637 278.000,243.845 278.000 C 244.052 278.000,244.515 277.685,244.872 277.300 C 245.230 276.915,246.184 276.150,246.992 275.600 C 247.800 275.050,248.884 274.240,249.401 273.800 C 249.918 273.360,251.196 272.280,252.241 271.400 C 256.761 267.592,263.213 261.220,265.602 258.203 C 266.298 257.325,267.014 256.515,267.194 256.403 C 267.374 256.291,268.789 254.580,270.337 252.600 C 271.886 250.620,273.389 248.714,273.677 248.365 C 274.325 247.578,275.017 246.548,275.911 245.037 C 276.290 244.398,276.870 243.585,277.200 243.232 C 277.530 242.878,278.032 242.141,278.316 241.595 C 279.236 239.820,279.859 238.819,280.488 238.103 C 280.828 237.716,281.228 236.996,281.379 236.502 C 281.529 236.009,281.866 235.379,282.126 235.102 C 282.387 234.826,283.107 233.520,283.726 232.200 C 284.346 230.880,285.015 229.530,285.214 229.200 C 285.582 228.590,287.441 224.708,288.759 221.800 C 289.157 220.920,289.860 219.390,290.320 218.400 C 290.780 217.410,291.351 215.843,291.589 214.917 C 291.827 213.991,292.181 213.135,292.376 213.015 C 292.571 212.894,292.853 212.032,293.004 211.098 C 293.154 210.164,293.514 209.025,293.804 208.567 C 294.094 208.108,294.456 206.848,294.609 205.767 C 294.762 204.685,295.111 203.440,295.386 203.000 C 295.660 202.560,296.102 200.953,296.367 199.429 C 296.632 197.904,297.041 196.297,297.276 195.858 C 297.512 195.418,297.855 193.716,298.039 192.075 C 298.223 190.435,298.636 187.902,298.957 186.446 C 299.580 183.621,300.414 171.125,300.405 164.732 L 300.400 160.865 301.867 159.532 C 302.674 158.800,303.762 157.795,304.285 157.300 C 304.808 156.805,305.402 156.400,305.604 156.400 C 305.806 156.400,306.165 156.040,306.400 155.600 C 306.635 155.160,307.035 154.800,307.288 154.800 C 308.007 154.800,319.600 142.731,319.600 141.983 C 319.600 141.794,319.844 141.496,320.142 141.320 C 322.906 139.687,321.182 138.160,318.200 139.600 C 317.320 140.025,316.279 140.379,315.887 140.386 C 315.495 140.394,314.505 140.685,313.687 141.034 C 312.869 141.382,311.044 141.836,309.631 142.042 C 308.218 142.248,306.796 142.638,306.470 142.908 C 305.483 143.727,298.253 143.577,298.086 142.734 C 298.008 142.341,298.289 141.962,298.771 141.809 C 302.279 140.696,313.302 128.532,314.623 124.317 C 314.781 123.813,315.245 122.971,315.655 122.446 C 317.713 119.811,316.680 119.243,313.027 121.000 C 311.426 121.770,309.932 122.400,309.707 122.400 C 309.482 122.400,309.074 122.670,308.800 123.000 C 308.526 123.330,308.009 123.606,307.651 123.613 C 307.293 123.619,306.100 124.068,305.000 124.609 C 303.900 125.150,302.668 125.594,302.262 125.596 C 301.856 125.598,301.046 125.862,300.462 126.182 C 299.878 126.501,298.590 126.938,297.600 127.151 C 296.610 127.365,295.018 127.828,294.062 128.181 C 290.433 129.520,287.503 129.209,285.637 127.286 C 284.737 126.359,283.821 125.600,283.600 125.600 C 283.380 125.600,283.200 125.422,283.200 125.205 C 283.200 124.988,282.451 124.313,281.536 123.705 C 280.621 123.097,279.406 122.285,278.836 121.899 C 278.266 121.514,277.227 120.931,276.527 120.605 C 275.827 120.279,275.145 119.834,275.011 119.617 C 274.876 119.400,274.052 119.008,273.178 118.746 C 272.305 118.485,271.391 118.030,271.146 117.735 C 270.902 117.441,270.319 117.192,269.851 117.182 C 269.383 117.173,268.280 116.887,267.400 116.547 C 265.603 115.852,257.460 114.463,253.800 114.225 C " stroke="none" fill="#fff" fill-rule="evenodd"></path><path id="path2" d="M184.998 0.576 C 184.573 1.191,177.988 2.000,173.411 2.000 C 172.063 2.000,170.789 2.161,170.580 2.357 C 170.032 2.872,166.277 3.598,164.080 3.613 C 163.046 3.620,161.210 3.974,160.000 4.400 C 158.790 4.826,156.985 5.180,155.989 5.187 C 154.993 5.194,153.773 5.483,153.279 5.830 C 152.784 6.176,151.349 6.559,150.090 6.681 C 148.830 6.802,147.260 7.223,146.600 7.615 C 145.940 8.008,144.542 8.456,143.494 8.611 C 142.445 8.766,140.922 9.232,140.109 9.646 C 139.296 10.061,138.218 10.400,137.714 10.400 C 137.210 10.400,136.125 10.760,135.304 11.200 C 134.484 11.640,133.336 12.000,132.755 12.000 C 132.174 12.000,131.490 12.250,131.237 12.556 C 130.983 12.861,129.943 13.321,128.925 13.577 C 127.906 13.834,126.702 14.304,126.248 14.622 C 125.794 14.940,125.144 15.200,124.805 15.200 C 124.466 15.200,123.516 15.560,122.696 16.000 C 121.875 16.440,120.747 16.800,120.189 16.800 C 119.631 16.800,119.074 17.063,118.950 17.385 C 118.827 17.706,118.338 18.081,117.863 18.217 C 116.943 18.482,113.000 20.251,112.000 20.848 C 111.670 21.045,110.950 21.404,110.400 21.646 C 109.850 21.888,109.130 22.248,108.800 22.448 C 108.470 22.647,107.480 23.166,106.600 23.600 C 104.390 24.692,102.352 25.888,101.856 26.384 C 101.627 26.613,101.142 26.800,100.778 26.800 C 100.415 26.800,99.631 27.250,99.038 27.800 C 98.444 28.350,97.726 28.800,97.441 28.800 C 97.157 28.800,96.598 29.160,96.200 29.600 C 95.802 30.040,95.138 30.400,94.725 30.400 C 94.313 30.400,93.874 30.663,93.750 30.985 C 93.627 31.306,93.138 31.688,92.663 31.832 C 92.188 31.976,91.484 32.372,91.097 32.712 C 90.711 33.051,90.054 33.525,89.639 33.764 C 88.198 34.595,84.198 37.337,83.800 37.768 C 83.580 38.005,82.590 38.736,81.600 39.392 C 79.603 40.714,74.026 45.069,73.400 45.794 C 73.180 46.049,72.702 46.425,72.337 46.629 C 69.470 48.234,48.234 69.470,46.629 72.337 C 46.425 72.702,46.049 73.180,45.794 73.400 C 45.069 74.026,40.714 79.603,39.392 81.600 C 38.736 82.590,38.005 83.580,37.768 83.800 C 37.337 84.198,34.595 88.198,33.764 89.639 C 33.525 90.054,33.051 90.711,32.712 91.097 C 32.372 91.484,31.976 92.188,31.832 92.663 C 31.688 93.138,31.306 93.627,30.985 93.750 C 30.663 93.874,30.400 94.313,30.400 94.725 C 30.400 95.138,30.040 95.802,29.600 96.200 C 29.160 96.598,28.800 97.157,28.800 97.441 C 28.800 97.726,28.350 98.444,27.800 99.038 C 27.250 99.631,26.800 100.415,26.800 100.778 C 26.800 101.142,26.613 101.627,26.384 101.856 C 25.888 102.352,24.692 104.390,23.600 106.600 C 23.166 107.480,22.647 108.470,22.448 108.800 C 22.248 109.130,21.888 109.850,21.646 110.400 C 21.404 110.950,21.045 111.670,20.848 112.000 C 20.096 113.259,18.400 117.031,18.400 117.444 C 18.400 117.681,18.040 118.202,17.600 118.600 C 17.160 118.998,16.800 119.747,16.800 120.263 C 16.800 120.780,16.440 121.875,16.000 122.696 C 15.560 123.516,15.200 124.466,15.200 124.805 C 15.200 125.144,14.940 125.794,14.622 126.248 C 14.304 126.702,13.834 127.906,13.577 128.925 C 13.321 129.943,12.861 130.983,12.556 131.237 C 12.250 131.490,12.000 132.174,12.000 132.755 C 12.000 133.336,11.640 134.484,11.200 135.304 C 10.760 136.125,10.400 137.210,10.400 137.714 C 10.400 138.218,10.061 139.296,9.646 140.109 C 9.232 140.922,8.766 142.445,8.611 143.494 C 8.456 144.542,8.008 145.940,7.615 146.600 C 7.223 147.260,6.802 148.830,6.681 150.090 C 6.559 151.349,6.176 152.784,5.830 153.279 C 5.483 153.773,5.194 154.993,5.187 155.989 C 5.180 156.985,4.826 158.790,4.400 160.000 C 3.974 161.210,3.620 163.046,3.613 164.080 C 3.598 166.277,2.872 170.032,2.357 170.580 C 2.161 170.789,2.000 172.063,2.000 173.411 C 2.000 177.916,1.184 184.570,0.573 185.044 C -0.269 185.697,-0.281 214.176,0.559 215.016 C 1.167 215.624,1.472 217.709,1.990 224.800 C 2.174 227.330,2.612 230.384,2.963 231.587 C 3.313 232.790,3.600 234.824,3.600 236.107 C 3.600 237.453,3.868 238.958,4.234 239.665 C 4.582 240.339,4.957 241.905,5.066 243.145 C 5.176 244.385,5.611 246.243,6.033 247.274 C 6.455 248.305,6.800 249.897,6.800 250.811 C 6.800 251.842,7.090 252.843,7.564 253.444 C 7.983 253.978,8.451 255.313,8.602 256.411 C 8.753 257.509,9.219 259.117,9.638 259.984 C 10.057 260.852,10.400 262.088,10.400 262.732 C 10.400 263.375,10.656 264.114,10.969 264.374 C 11.282 264.634,11.661 265.601,11.811 266.523 C 11.961 267.445,12.426 268.761,12.842 269.447 C 13.259 270.133,13.600 271.013,13.600 271.403 C 13.600 272.067,14.200 273.541,16.039 277.400 C 16.459 278.280,16.802 279.377,16.801 279.838 C 16.800 280.299,17.150 280.993,17.577 281.379 C 18.005 281.766,18.478 282.649,18.629 283.341 C 18.781 284.034,19.241 285.029,19.652 285.554 C 20.063 286.079,20.400 286.770,20.400 287.091 C 20.400 287.411,20.760 288.131,21.200 288.691 C 21.640 289.250,22.000 290.033,22.000 290.430 C 22.000 290.828,22.167 291.256,22.371 291.382 C 22.575 291.508,23.430 293.004,24.271 294.706 C 25.112 296.408,26.025 298.038,26.300 298.329 C 26.575 298.619,26.800 299.101,26.800 299.400 C 26.800 299.699,27.102 300.245,27.472 300.615 C 28.157 301.300,29.083 302.825,30.155 305.032 C 30.485 305.709,31.034 306.496,31.377 306.781 C 31.720 307.065,32.000 307.518,32.000 307.787 C 32.000 308.056,32.360 308.602,32.800 309.000 C 33.240 309.398,33.600 309.907,33.600 310.130 C 33.600 310.354,33.899 310.867,34.264 311.271 C 34.630 311.675,35.125 312.346,35.364 312.761 C 35.983 313.834,38.901 318.078,39.515 318.797 C 41.021 320.563,42.000 321.965,42.000 322.358 C 42.000 322.601,42.145 322.800,42.323 322.800 C 42.501 322.800,44.237 324.780,46.182 327.200 C 48.127 329.620,49.871 331.600,50.059 331.600 C 50.247 331.600,50.400 331.769,50.400 331.976 C 50.400 332.184,51.165 333.145,52.100 334.114 C 62.895 345.297,68.573 350.640,74.700 355.383 C 76.075 356.447,77.200 357.471,77.200 357.659 C 77.200 357.847,77.399 358.000,77.642 358.000 C 77.885 358.000,78.650 358.448,79.342 358.996 C 80.034 359.545,80.960 360.257,81.400 360.580 C 81.840 360.902,82.766 361.624,83.458 362.183 C 84.150 362.742,84.855 363.200,85.026 363.200 C 85.197 363.200,85.667 363.499,86.071 363.864 C 86.475 364.230,87.149 364.725,87.568 364.964 C 87.987 365.204,89.711 366.345,91.399 367.500 C 93.086 368.655,94.618 369.600,94.803 369.600 C 94.988 369.600,95.647 370.025,96.269 370.545 C 96.891 371.065,97.805 371.617,98.300 371.772 C 98.795 371.927,99.200 372.208,99.200 372.396 C 99.200 372.584,99.830 372.946,100.600 373.200 C 101.370 373.454,102.000 373.828,102.000 374.031 C 102.000 374.234,102.245 374.400,102.544 374.400 C 102.843 374.400,103.751 374.850,104.562 375.400 C 105.372 375.950,106.273 376.400,106.564 376.400 C 106.854 376.400,107.536 376.749,108.078 377.175 C 108.620 377.602,109.537 378.069,110.115 378.214 C 110.694 378.360,111.367 378.719,111.611 379.014 C 111.855 379.308,112.570 379.662,113.200 379.800 C 113.830 379.938,114.555 380.305,114.813 380.615 C 115.070 380.925,115.881 381.291,116.614 381.429 C 117.348 381.567,118.257 382.021,118.636 382.440 C 119.014 382.858,119.651 383.200,120.051 383.200 C 120.722 383.200,121.957 383.687,126.200 385.627 C 127.080 386.029,128.340 386.472,129.000 386.610 C 129.660 386.749,130.470 387.096,130.800 387.380 C 131.130 387.665,132.117 388.027,132.993 388.185 C 133.869 388.342,134.949 388.677,135.393 388.929 C 135.837 389.181,137.010 389.599,138.000 389.859 C 138.990 390.118,140.520 390.608,141.400 390.947 C 142.280 391.287,143.450 391.573,144.000 391.584 C 144.550 391.594,145.540 391.933,146.201 392.335 C 146.861 392.738,148.450 393.176,149.732 393.308 C 151.013 393.440,152.492 393.830,153.017 394.174 C 153.542 394.518,154.781 394.800,155.771 394.800 C 156.760 394.800,158.522 395.142,159.685 395.561 C 160.848 395.979,163.305 396.435,165.144 396.574 C 166.983 396.713,169.143 397.104,169.944 397.443 C 170.832 397.819,173.116 398.129,175.800 398.239 C 180.986 398.450,184.941 399.024,185.131 399.594 C 185.318 400.154,214.682 400.154,214.869 399.594 C 215.060 399.019,219.000 398.458,224.555 398.214 C 227.171 398.100,229.511 397.841,229.755 397.640 C 230.340 397.159,234.512 396.400,236.573 396.400 C 237.468 396.400,239.147 396.040,240.304 395.600 C 241.462 395.160,243.197 394.800,244.161 394.800 C 245.124 394.800,246.697 394.444,247.656 394.009 C 248.615 393.574,250.099 393.214,250.953 393.209 C 251.807 393.204,253.067 392.861,253.753 392.447 C 254.439 392.033,255.885 391.568,256.967 391.413 C 258.048 391.258,259.308 390.890,259.767 390.595 C 260.225 390.300,261.320 389.929,262.200 389.769 C 263.080 389.610,264.160 389.246,264.600 388.960 C 265.040 388.674,266.162 388.319,267.092 388.170 C 268.023 388.022,268.986 387.657,269.233 387.361 C 269.479 387.064,270.337 386.705,271.140 386.562 C 271.943 386.419,273.161 385.965,273.847 385.551 C 274.533 385.138,275.433 384.799,275.847 384.797 C 276.261 384.796,277.140 384.437,277.800 384.000 C 278.460 383.563,279.383 383.204,279.851 383.203 C 280.319 383.201,280.920 382.937,281.187 382.615 C 281.454 382.294,282.061 381.917,282.536 381.777 C 283.011 381.638,284.981 380.731,286.914 379.762 C 288.846 378.793,290.672 378.000,290.971 378.000 C 291.270 378.000,291.609 377.753,291.725 377.451 C 291.841 377.150,292.395 376.788,292.957 376.646 C 293.519 376.505,294.639 375.942,295.445 375.395 C 296.252 374.848,297.134 374.400,297.407 374.400 C 297.679 374.400,298.126 374.130,298.400 373.800 C 298.674 373.470,299.208 373.200,299.587 373.200 C 299.966 373.200,300.602 372.840,301.000 372.400 C 301.398 371.960,301.953 371.600,302.233 371.600 C 302.514 371.600,303.005 371.338,303.325 371.018 C 303.980 370.362,306.149 369.008,307.484 368.421 C 307.970 368.207,308.735 367.665,309.184 367.216 C 309.633 366.767,310.264 366.400,310.586 366.400 C 310.908 366.400,311.365 366.040,311.600 365.600 C 311.835 365.160,312.194 364.800,312.396 364.800 C 312.796 364.800,315.287 363.217,316.649 362.098 C 317.116 361.714,317.901 361.130,318.394 360.800 C 319.890 359.799,322.153 358.062,323.000 357.266 C 323.440 356.852,324.790 355.762,326.000 354.843 C 334.246 348.584,348.584 334.246,354.843 326.000 C 355.762 324.790,356.852 323.440,357.266 323.000 C 358.062 322.153,359.799 319.890,360.800 318.394 C 361.130 317.901,361.714 317.116,362.098 316.649 C 363.217 315.287,364.800 312.796,364.800 312.396 C 364.800 312.194,365.160 311.835,365.600 311.600 C 366.040 311.365,366.400 310.908,366.400 310.586 C 366.400 310.264,366.767 309.633,367.216 309.184 C 367.665 308.735,368.207 307.970,368.421 307.484 C 369.008 306.149,370.362 303.980,371.018 303.325 C 371.338 303.005,371.600 302.514,371.600 302.233 C 371.600 301.953,371.960 301.398,372.400 301.000 C 372.840 300.602,373.200 299.966,373.200 299.587 C 373.200 299.208,373.470 298.674,373.800 298.400 C 374.130 298.126,374.400 297.679,374.400 297.407 C 374.400 297.134,374.848 296.252,375.395 295.445 C 375.942 294.639,376.505 293.519,376.646 292.957 C 376.788 292.395,377.150 291.841,377.451 291.725 C 377.753 291.609,378.000 291.270,378.000 290.971 C 378.000 290.672,378.793 288.846,379.762 286.914 C 380.731 284.981,381.638 283.011,381.777 282.536 C 381.917 282.061,382.294 281.454,382.615 281.187 C 382.937 280.920,383.201 280.319,383.203 279.851 C 383.204 279.383,383.563 278.460,384.000 277.800 C 384.437 277.140,384.796 276.261,384.797 275.847 C 384.799 275.433,385.138 274.533,385.551 273.847 C 385.965 273.161,386.419 271.943,386.562 271.140 C 386.705 270.337,387.064 269.479,387.361 269.233 C 387.657 268.986,388.022 268.023,388.170 267.092 C 388.319 266.162,388.674 265.040,388.960 264.600 C 389.246 264.160,389.610 263.080,389.769 262.200 C 389.929 261.320,390.300 260.225,390.595 259.767 C 390.890 259.308,391.258 258.048,391.413 256.967 C 391.568 255.885,392.033 254.439,392.447 253.753 C 392.861 253.067,393.204 251.807,393.209 250.953 C 393.214 250.099,393.574 248.615,394.009 247.656 C 394.444 246.697,394.800 245.124,394.800 244.161 C 394.800 243.197,395.160 241.462,395.600 240.304 C 396.040 239.147,396.400 237.468,396.400 236.573 C 396.400 234.512,397.159 230.340,397.640 229.755 C 397.841 229.511,398.100 227.171,398.214 224.555 C 398.458 219.000,399.019 215.060,399.594 214.869 C 400.154 214.682,400.154 185.318,399.594 185.131 C 399.024 184.941,398.450 180.986,398.239 175.800 C 398.129 173.116,397.819 170.832,397.443 169.944 C 397.104 169.143,396.713 166.983,396.574 165.144 C 396.435 163.305,395.979 160.848,395.561 159.685 C 395.142 158.522,394.800 156.760,394.800 155.771 C 394.800 154.781,394.518 153.542,394.174 153.017 C 393.830 152.492,393.440 151.013,393.308 149.732 C 393.176 148.450,392.738 146.861,392.335 146.201 C 391.933 145.540,391.594 144.550,391.584 144.000 C 391.573 143.450,391.287 142.280,390.947 141.400 C 390.608 140.520,390.118 138.990,389.859 138.000 C 389.599 137.010,389.171 135.818,388.906 135.350 C 388.642 134.883,388.307 133.761,388.163 132.858 C 388.018 131.954,387.657 131.014,387.361 130.767 C 387.064 130.521,386.705 129.663,386.562 128.860 C 386.419 128.057,385.965 126.839,385.551 126.153 C 385.138 125.467,384.800 124.616,384.800 124.262 C 384.800 123.909,384.441 123.030,384.001 122.310 C 383.562 121.589,383.202 120.623,383.201 120.162 C 383.201 119.701,382.858 119.014,382.440 118.636 C 382.021 118.257,381.567 117.348,381.429 116.614 C 381.291 115.881,380.931 115.075,380.629 114.824 C 380.326 114.573,379.957 113.880,379.808 113.284 C 379.659 112.688,379.303 111.930,379.016 111.600 C 378.729 111.270,378.359 110.550,378.192 110.000 C 378.026 109.450,377.555 108.571,377.145 108.046 C 376.735 107.521,376.400 106.854,376.400 106.564 C 376.400 106.273,375.950 105.372,375.400 104.562 C 374.850 103.751,374.400 102.843,374.400 102.544 C 374.400 102.245,374.234 102.000,374.031 102.000 C 373.828 102.000,373.454 101.370,373.200 100.600 C 372.946 99.830,372.584 99.200,372.396 99.200 C 372.208 99.200,371.927 98.795,371.772 98.300 C 371.617 97.805,371.065 96.891,370.545 96.269 C 370.025 95.647,369.600 94.988,369.600 94.803 C 369.600 94.618,368.655 93.086,367.500 91.399 C 366.345 89.711,365.204 87.987,364.964 87.568 C 364.725 87.149,364.230 86.475,363.864 86.071 C 363.499 85.667,363.200 85.197,363.200 85.026 C 363.200 84.855,362.742 84.150,362.183 83.458 C 361.624 82.766,360.902 81.840,360.580 81.400 C 360.257 80.960,359.545 80.034,358.996 79.342 C 358.448 78.650,358.000 77.885,358.000 77.642 C 358.000 77.399,357.847 77.200,357.659 77.200 C 357.471 77.200,356.447 76.075,355.383 74.700 C 350.640 68.573,345.297 62.895,334.114 52.100 C 333.145 51.165,332.184 50.400,331.976 50.400 C 331.769 50.400,331.600 50.247,331.600 50.059 C 331.600 49.871,329.620 48.127,327.200 46.182 C 324.780 44.237,322.800 42.501,322.800 42.323 C 322.800 42.145,322.601 42.000,322.358 42.000 C 321.959 42.000,320.478 40.961,318.769 39.484 C 318.423 39.184,317.883 38.818,317.569 38.669 C 317.256 38.521,316.190 37.771,315.200 37.002 C 314.210 36.232,313.033 35.441,312.584 35.243 C 312.135 35.045,311.527 34.595,311.235 34.242 C 310.942 33.889,310.482 33.600,310.213 33.600 C 309.944 33.600,309.398 33.240,309.000 32.800 C 308.602 32.360,308.056 32.000,307.787 32.000 C 307.518 32.000,307.065 31.720,306.781 31.377 C 306.496 31.034,305.709 30.485,305.032 30.155 C 302.825 29.083,301.300 28.157,300.615 27.472 C 300.245 27.102,299.699 26.800,299.400 26.800 C 299.101 26.800,298.619 26.575,298.329 26.300 C 298.038 26.025,296.408 25.112,294.706 24.271 C 293.004 23.430,291.508 22.575,291.382 22.371 C 291.256 22.167,290.828 22.000,290.430 22.000 C 290.033 22.000,289.250 21.640,288.691 21.200 C 288.131 20.760,287.411 20.400,287.091 20.400 C 286.770 20.400,286.079 20.063,285.554 19.652 C 285.029 19.241,284.034 18.781,283.341 18.629 C 282.649 18.478,281.766 18.005,281.379 17.577 C 280.993 17.150,280.299 16.800,279.838 16.801 C 279.377 16.802,278.280 16.461,277.400 16.044 C 273.922 14.395,271.950 13.600,271.337 13.600 C 270.983 13.600,270.133 13.259,269.447 12.842 C 268.761 12.426,267.445 11.961,266.523 11.811 C 265.601 11.661,264.634 11.282,264.374 10.969 C 264.114 10.656,263.375 10.400,262.732 10.400 C 262.088 10.400,260.852 10.057,259.984 9.638 C 259.117 9.219,257.509 8.753,256.411 8.602 C 255.313 8.451,253.978 7.983,253.444 7.564 C 252.843 7.090,251.842 6.800,250.811 6.800 C 249.897 6.800,248.305 6.455,247.274 6.033 C 246.243 5.611,244.385 5.176,243.145 5.066 C 241.905 4.957,240.339 4.582,239.665 4.234 C 238.958 3.868,237.453 3.600,236.107 3.600 C 234.824 3.600,232.790 3.313,231.587 2.963 C 230.384 2.612,227.330 2.174,224.800 1.990 C 217.709 1.472,215.624 1.167,215.016 0.559 C 214.172 -0.285,185.582 -0.269,184.998 0.576 M262.750 114.142 C 263.713 114.504,265.025 114.800,265.666 114.800 C 266.307 114.800,267.538 115.160,268.400 115.600 C 269.262 116.040,270.239 116.400,270.570 116.400 C 271.387 116.400,278.213 119.893,278.816 120.619 C 279.081 120.939,279.537 121.200,279.828 121.200 C 280.120 121.200,280.820 121.605,281.383 122.100 C 281.947 122.595,282.881 123.360,283.459 123.800 C 284.037 124.240,285.279 125.365,286.219 126.300 C 287.978 128.049,290.753 128.687,291.846 127.594 C 292.069 127.371,293.571 126.913,295.183 126.577 C 296.795 126.241,298.488 125.703,298.946 125.383 C 299.404 125.062,300.236 124.800,300.795 124.800 C 301.354 124.800,302.484 124.440,303.304 124.000 C 304.125 123.560,305.058 123.200,305.377 123.200 C 305.697 123.200,306.752 122.778,307.723 122.261 C 308.695 121.745,309.829 121.210,310.245 121.073 C 310.660 120.936,311.270 120.638,311.600 120.411 C 311.930 120.185,312.650 119.817,313.200 119.593 C 313.750 119.370,314.966 118.754,315.903 118.225 C 318.020 117.030,319.642 118.871,317.811 120.391 C 317.486 120.660,317.106 121.494,316.965 122.245 C 316.824 122.995,316.547 123.709,316.349 123.832 C 316.150 123.954,315.711 124.627,315.372 125.327 C 313.607 128.977,310.134 133.618,306.784 136.800 C 303.227 140.179,301.400 141.800,300.600 142.286 C 299.546 142.926,301.617 143.033,302.801 142.400 C 303.213 142.179,304.948 141.804,306.658 141.567 C 308.368 141.329,310.224 140.900,310.783 140.614 C 311.343 140.329,312.606 139.961,313.591 139.797 C 314.576 139.633,315.746 139.269,316.191 138.989 C 316.636 138.708,317.630 138.347,318.400 138.186 C 319.170 138.025,320.414 137.565,321.164 137.163 C 321.914 136.761,322.634 136.487,322.764 136.554 C 322.894 136.622,323.323 136.792,323.717 136.932 C 324.668 137.271,323.599 139.278,320.998 142.034 C 320.669 142.382,320.400 142.779,320.400 142.915 C 320.400 143.052,319.995 143.588,319.500 144.108 C 319.005 144.627,317.340 146.490,315.800 148.247 C 313.249 151.159,307.202 156.701,303.537 159.487 C 301.694 160.888,301.600 161.376,301.599 169.550 C 301.599 173.673,301.371 177.492,301.000 179.600 C 300.671 181.470,300.401 183.916,300.401 185.036 C 300.400 186.156,300.063 188.406,299.650 190.036 C 299.238 191.666,298.770 194.080,298.609 195.400 C 298.449 196.719,298.084 198.252,297.797 198.805 C 297.511 199.358,297.147 200.708,296.988 201.805 C 296.828 202.902,296.508 204.160,296.277 204.600 C 296.045 205.040,295.629 206.300,295.352 207.400 C 294.667 210.118,293.655 213.075,292.750 215.000 C 292.336 215.880,291.998 216.820,291.999 217.089 C 292.000 217.566,291.259 219.329,289.343 223.406 C 288.824 224.509,288.400 225.612,288.400 225.857 C 288.400 226.102,288.159 226.502,287.865 226.746 C 287.570 226.991,287.113 227.913,286.849 228.795 C 286.584 229.678,286.209 230.400,286.016 230.400 C 285.822 230.400,285.545 230.938,285.401 231.595 C 285.257 232.253,284.957 232.903,284.736 233.039 C 284.515 233.176,283.983 234.033,283.553 234.944 C 282.506 237.165,281.794 238.320,277.717 244.400 C 271.242 254.056,262.354 264.326,255.214 270.400 C 253.792 271.610,252.330 272.870,251.965 273.200 C 250.571 274.462,247.886 276.616,247.262 276.973 C 246.903 277.178,246.258 277.673,245.829 278.073 C 245.400 278.473,244.813 278.800,244.525 278.800 C 244.236 278.800,244.000 278.954,244.000 279.142 C 244.000 279.330,242.965 280.136,241.700 280.935 C 240.435 281.733,239.130 282.566,238.800 282.786 C 236.646 284.221,235.272 285.072,234.400 285.512 C 233.850 285.789,232.680 286.453,231.800 286.987 C 230.920 287.522,229.750 288.148,229.200 288.379 C 228.650 288.610,227.930 288.981,227.600 289.203 C 227.270 289.424,226.550 289.809,226.000 290.058 C 225.450 290.307,224.190 290.877,223.200 291.324 C 222.210 291.771,220.745 292.466,219.946 292.869 C 219.146 293.271,218.243 293.600,217.940 293.600 C 217.636 293.600,216.761 293.936,215.994 294.347 C 215.227 294.757,213.973 295.231,213.206 295.399 C 212.439 295.567,211.449 295.931,211.006 296.208 C 210.563 296.484,209.486 296.836,208.614 296.989 C 207.741 297.143,206.546 297.518,205.958 297.822 C 205.369 298.126,203.923 298.546,202.744 298.754 C 201.565 298.962,199.880 299.410,199.000 299.749 C 198.120 300.088,196.748 300.373,195.950 300.382 C 195.153 300.392,193.731 300.672,192.790 301.004 C 191.849 301.335,189.172 301.781,186.840 301.993 C 184.508 302.206,181.880 302.606,181.000 302.884 C 178.342 303.721,153.063 303.594,149.200 302.724 C 147.550 302.352,144.850 301.943,143.200 301.814 C 141.550 301.685,139.480 301.322,138.600 301.008 C 137.720 300.693,136.370 300.419,135.600 300.400 C 134.830 300.381,133.480 300.090,132.600 299.754 C 131.720 299.417,129.885 298.915,128.521 298.638 C 127.158 298.360,125.808 297.944,125.521 297.713 C 125.235 297.482,124.190 297.103,123.200 296.872 C 120.910 296.337,117.270 295.063,115.674 294.238 C 114.995 293.887,114.095 293.600,113.674 293.600 C 113.253 293.600,112.450 293.240,111.891 292.800 C 111.331 292.360,110.632 292.001,110.337 292.001 C 109.749 292.003,101.523 288.024,101.200 287.582 C 101.090 287.431,100.553 287.168,100.008 286.998 C 99.462 286.827,98.562 286.374,98.008 285.992 C 97.453 285.609,96.057 284.706,94.905 283.984 C 91.463 281.828,92.007 281.702,105.516 281.512 C 113.502 281.400,117.776 281.188,118.546 280.865 C 119.176 280.601,121.156 280.126,122.946 279.809 C 127.166 279.063,130.989 278.047,133.026 277.131 C 133.921 276.729,135.001 276.399,135.426 276.399 C 135.852 276.398,136.789 276.038,137.510 275.599 C 138.230 275.159,139.094 274.800,139.430 274.800 C 139.767 274.800,140.707 274.456,141.521 274.035 C 142.334 273.614,144.411 272.580,146.136 271.738 C 147.861 270.895,149.357 270.070,149.460 269.903 C 149.563 269.736,149.914 269.600,150.240 269.600 C 150.567 269.600,151.051 269.413,151.317 269.185 C 151.583 268.957,152.951 268.012,154.358 267.085 C 155.765 266.158,157.307 265.130,157.784 264.800 C 158.262 264.470,159.260 263.803,160.004 263.317 C 161.607 262.270,161.384 262.154,157.177 261.845 C 155.514 261.723,153.494 261.348,152.689 261.012 C 151.884 260.675,150.763 260.400,150.197 260.400 C 149.631 260.400,148.500 260.062,147.684 259.649 C 146.868 259.236,145.627 258.774,144.928 258.623 C 144.228 258.472,143.455 258.108,143.211 257.814 C 142.967 257.519,142.307 257.163,141.743 257.022 C 141.180 256.880,140.243 256.441,139.660 256.045 C 139.077 255.649,137.796 254.802,136.813 254.163 C 135.831 253.523,134.729 252.730,134.364 252.400 C 134.000 252.070,133.143 251.378,132.461 250.863 C 129.595 248.698,123.578 241.831,123.031 240.100 C 122.874 239.605,122.589 239.200,122.396 239.200 C 121.952 239.200,118.578 232.210,118.228 230.564 C 117.786 228.489,118.499 228.241,123.288 228.807 C 129.433 229.533,140.412 227.859,135.138 227.000 C 133.298 226.701,132.289 226.306,127.800 224.129 C 122.233 221.429,120.262 220.023,115.187 215.132 C 112.633 212.671,108.646 207.817,108.001 206.382 C 107.758 205.842,107.122 204.680,106.587 203.800 C 106.053 202.920,105.412 201.750,105.162 201.200 C 103.618 197.794,103.263 196.849,103.034 195.540 C 102.894 194.737,102.536 193.567,102.239 192.940 C 101.611 191.614,100.629 182.769,100.985 181.647 C 101.246 180.825,102.662 180.253,103.016 180.827 C 103.136 181.020,103.946 181.370,104.817 181.605 C 105.688 181.839,106.400 182.196,106.400 182.397 C 106.400 182.599,107.075 182.887,107.900 183.037 C 108.725 183.187,110.210 183.622,111.200 184.004 C 113.473 184.880,119.007 185.436,119.384 184.826 C 119.531 184.587,119.055 183.900,118.326 183.297 C 113.881 179.628,106.400 170.226,106.400 168.310 C 106.400 167.979,106.040 167.250,105.600 166.691 C 105.160 166.131,104.800 165.337,104.800 164.926 C 104.800 164.515,104.527 163.789,104.194 163.313 C 103.861 162.837,103.409 161.492,103.189 160.324 C 102.969 159.156,102.539 157.660,102.233 157.000 C 101.021 154.385,101.110 136.954,102.343 135.469 C 102.575 135.189,102.888 134.159,103.039 133.180 C 103.189 132.201,103.647 130.732,104.056 129.916 C 104.465 129.100,104.800 128.075,104.800 127.640 C 104.800 127.204,104.995 126.727,105.233 126.580 C 105.471 126.432,106.005 125.522,106.419 124.556 C 106.833 123.590,107.241 122.800,107.326 122.800 C 108.324 122.800,110.052 123.967,111.090 125.342 C 112.811 127.623,120.309 135.208,123.800 138.200 C 125.340 139.520,126.744 140.825,126.920 141.100 C 127.096 141.375,127.482 141.600,127.777 141.600 C 128.073 141.600,128.403 141.831,128.512 142.114 C 128.620 142.397,129.494 143.156,130.454 143.802 C 131.415 144.447,133.010 145.621,134.000 146.409 C 134.990 147.197,136.790 148.459,138.000 149.213 C 139.210 149.966,140.438 150.812,140.729 151.092 C 141.019 151.371,141.492 151.600,141.780 151.600 C 142.067 151.600,142.520 151.863,142.787 152.184 C 143.053 152.505,144.409 153.323,145.800 154.000 C 147.191 154.677,148.547 155.495,148.813 155.816 C 149.080 156.137,149.612 156.400,149.995 156.400 C 150.378 156.400,151.136 156.749,151.678 157.175 C 152.220 157.602,153.137 158.069,153.715 158.214 C 154.294 158.360,154.977 158.731,155.233 159.039 C 155.489 159.348,155.954 159.600,156.267 159.600 C 156.580 159.600,157.682 160.050,158.715 160.600 C 159.748 161.150,160.865 161.601,161.197 161.603 C 161.529 161.604,162.340 161.963,163.000 162.400 C 163.660 162.837,164.516 163.196,164.901 163.197 C 165.287 163.199,166.275 163.560,167.096 164.000 C 167.916 164.440,169.046 164.800,169.605 164.800 C 170.164 164.800,171.014 165.075,171.493 165.410 C 171.973 165.746,173.408 166.210,174.682 166.441 C 175.957 166.672,177.360 167.090,177.800 167.369 C 178.240 167.649,179.590 168.006,180.800 168.162 C 182.010 168.318,183.810 168.699,184.800 169.008 C 185.790 169.317,188.400 169.859,190.600 170.213 C 192.800 170.567,195.500 171.011,196.600 171.199 C 199.244 171.652,204.857 171.678,205.547 171.241 C 206.009 170.949,206.009 170.656,205.547 169.348 C 204.704 166.963,204.830 155.157,205.723 152.850 C 206.095 151.887,206.400 150.530,206.400 149.834 C 206.400 149.138,206.760 147.863,207.200 147.000 C 207.640 146.137,207.999 145.154,207.999 144.815 C 207.996 143.942,211.993 136.000,212.434 136.000 C 212.635 136.000,212.800 135.753,212.800 135.451 C 212.800 134.283,218.772 127.409,222.242 124.583 C 223.457 123.593,224.665 122.604,224.926 122.386 C 226.539 121.035,231.795 118.000,232.522 118.000 C 232.841 118.000,233.310 117.750,233.563 117.444 C 233.817 117.139,234.871 116.676,235.907 116.415 C 236.942 116.154,238.017 115.752,238.295 115.521 C 238.573 115.290,240.106 114.849,241.700 114.540 C 243.295 114.231,245.230 113.814,246.000 113.614 C 248.389 112.990,260.723 113.379,262.750 114.142 " stroke="none" fill="#000" fill-rule="evenodd"></path></g></svg>